<svg width="21" height="20" viewBox="0 0 21 20" fill="none" xmlns="http://www.w3.org/2000/svg">
<path d="M12.7895 15.6834C12.9479 15.6834 13.1062 15.6251 13.2312 15.5001L18.2895 10.4418C18.5312 10.2001 18.5312 9.8001 18.2895 9.55843L13.2312 4.5001C12.9895 4.25843 12.5895 4.25843 12.3479 4.5001C12.1062 4.74176 12.1062 5.14176 12.3479 5.38343L16.9645 10.0001L12.3479 14.6168C12.1062 14.8584 12.1062 15.2584 12.3479 15.5001C12.4645 15.6251 12.6312 15.6834 12.7895 15.6834Z" fill="white"/>
<path d="M17.5833 10.625H3.55832C3.21665 10.625 2.93332 10.3417 2.93332 10C2.93332 9.65833 3.21665 9.375 3.55832 9.375H17.5833C17.925 9.375 18.2083 9.65833 18.2083 10C18.2083 10.3417 17.925 10.625 17.5833 10.625Z" fill="white"/>
</svg>
