<svg width="20" height="20" viewBox="0 0 20 20" fill="none" xmlns="http://www.w3.org/2000/svg">
<path d="M12.2895 15.6834C12.4479 15.6834 12.6062 15.6251 12.7312 15.5001L17.7895 10.4418C18.0312 10.2001 18.0312 9.8001 17.7895 9.55843L12.7312 4.5001C12.4895 4.25843 12.0895 4.25843 11.8479 4.5001C11.6062 4.74176 11.6062 5.14176 11.8479 5.38343L16.4645 10.0001L11.8479 14.6168C11.6062 14.8584 11.6062 15.2584 11.8479 15.5001C11.9645 15.6251 12.1312 15.6834 12.2895 15.6834Z" fill="url(#paint0_linear_817_2350)"/>
<path d="M17.0833 10.625H3.05832C2.71665 10.625 2.43332 10.3417 2.43332 10C2.43332 9.65833 2.71665 9.375 3.05832 9.375H17.0833C17.425 9.375 17.7083 9.65833 17.7083 10C17.7083 10.3417 17.425 10.625 17.0833 10.625Z" fill="url(#paint1_linear_817_2350)"/>
<defs>
<linearGradient id="paint0_linear_817_2350" x1="8.41337" y1="10.0011" x2="17.9708" y2="10.0011" gradientUnits="userSpaceOnUse">
<stop stop-color="#0153FF"/>
<stop offset="1" stop-color="#7F38DB"/>
</linearGradient>
<linearGradient id="paint1_linear_817_2350" x1="25.591" y1="10" x2="2.43332" y2="10" gradientUnits="userSpaceOnUse">
<stop stop-color="#0153FF"/>
<stop offset="1" stop-color="#7F38DB"/>
</linearGradient>
</defs>
</svg>
