<svg width="24" height="24" viewBox="0 0 24 24" fill="none" xmlns="http://www.w3.org/2000/svg">
<path d="M3.33047 8.90998C3.33047 8.71998 3.40047 8.52998 3.55047 8.37998C3.84047 8.08998 4.32047 8.08998 4.61047 8.37998L11.1305 14.9C11.6105 15.38 12.3905 15.38 12.8705 14.9L19.3905 8.37998C19.6805 8.08998 20.1605 8.08998 20.4505 8.37998C20.7405 8.66998 20.7405 9.14998 20.4505 9.43998L13.9305 15.96C13.4205 16.47 12.7305 16.76 12.0005 16.76C11.2705 16.76 10.5805 16.48 10.0705 15.96L3.55047 9.43998C3.41047 9.28998 3.33047 9.09998 3.33047 8.90998Z" fill="url(#paint0_linear_811_1336)"/>
<defs>
<linearGradient id="paint0_linear_811_1336" x1="11.9992" y1="21.1967" x2="11.9992" y2="8.16248" gradientUnits="userSpaceOnUse">
<stop stop-color="#0153FF"/>
<stop offset="1" stop-color="#7F38DB"/>
</linearGradient>
</defs>
</svg>
